<svg width="39" height="30" viewBox="0 0 39 39" fill="none" xmlns="http://www.w3.org/2000/svg">
<rect width="39" height="39" rx="19.5" transform="matrix(-1 0 0 1 39 0)" fill="white"/>
<path d="M23.9041 11.1504C23.7989 10.4278 23.1688 9.88281 22.4386 9.88281H17.5617C16.8314 9.88281 16.2014 10.4278 16.0961 11.1504L15.8389 12.917H17.0613L17.2931 11.3247C17.3124 11.1923 17.4278 11.0925 17.5617 11.0925H22.4386C22.5724 11.0925 22.6878 11.1923 22.7071 11.3247L22.9389 12.9169H24.1614L23.9041 11.1504Z" fill="black"/>
<path d="M27.83 21.7268H22.5934V22.4329C22.5934 22.6563 22.4702 22.8614 22.2732 22.9666L20.2846 24.027C20.1957 24.0745 20.0979 24.0982 20 24.0982C19.9022 24.0982 19.8043 24.0745 19.7154 24.027L17.7268 22.9666C17.5297 22.8614 17.4066 22.6563 17.4066 22.4329V21.7268H12.17C11.3445 21.7268 10.5875 21.4289 10 20.9355V27.3746C10 27.7839 10.333 28.117 10.7423 28.117H29.2577C29.667 28.117 30 27.7839 30 27.3746V20.9355C29.4124 21.4289 28.6555 21.7268 27.83 21.7268Z" fill="black"/>
<path d="M29.2577 14.127H10.7423C10.333 14.127 10 14.46 10 14.8693V18.3473C10 19.5438 10.9734 20.5173 12.17 20.5173H17.4066V19.4578C17.4066 19.1238 17.6775 18.8529 18.0115 18.8529H21.9886C22.3226 18.8529 22.5934 19.1238 22.5934 19.4578V20.5173H27.83C29.0266 20.5173 30 19.5438 30 18.3473V14.8693C30 14.46 29.667 14.127 29.2577 14.127Z" fill="black"/>
<path d="M18.6162 20.0625V22.07L19.9999 22.8079L21.3836 22.07V20.0625H18.6162Z" fill="black"/>
</svg>
