<svg width="45" height="61" viewBox="0 0 45 61" fill="none" xmlns="http://www.w3.org/2000/svg">
<path d="M39.2146 22.9904H37.3628V15.5402C37.3628 7.32253 30.7188 0.639648 22.5489 0.639648C14.3791 0.639648 7.73507 7.32253 7.73507 15.5402V22.9904H5.88333C2.82179 22.9904 0.328125 25.4962 0.328125 28.5781V54.654C0.328125 57.7359 2.82179 60.2417 5.88333 60.2417H39.2146C42.2761 60.2417 44.7698 57.7359 44.7698 54.654V28.5781C44.7698 25.4962 42.2761 22.9904 39.2146 22.9904ZM12.673 15.5402C12.673 10.0617 17.1024 5.60649 22.5489 5.60649C27.9955 5.60649 32.4249 10.0617 32.4249 15.5402V22.9904H12.673V15.5402ZM25.0179 42.1674V47.8246C25.0179 49.1954 23.9143 50.308 22.5489 50.308C21.1836 50.308 20.08 49.1954 20.08 47.8246V42.1674C18.6109 41.3056 17.611 39.7212 17.611 37.8909C17.611 35.1517 19.8257 32.9241 22.5489 32.9241C25.2722 32.9241 27.4869 35.1517 27.4869 37.8909C27.4869 39.7212 26.487 41.3056 25.0179 42.1674Z" fill="white"/>
</svg>
